<svg xmlns="http://www.w3.org/2000/svg" width="20" height="44"><path d="M18.1 24.23l-.33.88a11.28 11.28 0 01-2.34 3.43c-.52.48-1.09.73-1.69.74-.43 0-.95-.12-1.56-.37a4.45 4.45 0 00-1.68-.37c-.54 0-1.11.12-1.73.37-.62.25-1.11.38-1.49.39-.58.02-1.15-.23-1.73-.76a9.59 9.59 0 01-1.38-1.65 11.35 11.35 0 01-2.07-6.34c0-1.27.28-2.37.83-3.29A4.84 4.84 0 017 14.85c.46 0 1.06.14 1.81.42.75.28 1.23.42 1.44.42.16 0 .69-.17 1.59-.5a5.18 5.18 0 012.16-.38c1.6.13 2.8.76 3.6 1.89a4 4 0 00-2.12 3.64 3.98 3.98 0 001.32 3.02c.38.38.81.66 1.3.87zm-4.02-13.92l.02.38c0 .95-.35 1.84-1.04 2.66-.84.98-1.85 1.54-2.94 1.45a4.2 4.2 0 011.08-3.05 4.34 4.34 0 012.88-1.44z" fill="#333"/><path fill="none" d="M0 0h20v44H0z"/></svg>